<mxfile host="app.diagrams.net" modified="2020-11-06T11:36:04.339Z" agent="5.0 (Windows)" etag="FIxUKu4u61DVhJF5zbIC" version="13.8.9-1" type="github">
  <diagram id="R2lEEEUBdFMjLlhIrx00" name="Page-1">
    <mxGraphModel dx="2272" dy="754" grid="1" gridSize="10" guides="1" tooltips="1" connect="1" arrows="1" fold="1" page="1" pageScale="1" pageWidth="850" pageHeight="1100" math="0" shadow="0" extFonts="Permanent Marker^https://fonts.googleapis.com/css?family=Permanent+Marker">
      <root>
        <mxCell id="0" />
        <mxCell id="1" parent="0" />
        <mxCell id="6t5HLcIPYTIlGH2F0Ipd-9" value="" style="edgeStyle=orthogonalEdgeStyle;rounded=0;orthogonalLoop=1;jettySize=auto;html=1;endArrow=ERoneToMany;endFill=0;startArrow=ERone;startFill=0;" edge="1" parent="1" source="6t5HLcIPYTIlGH2F0Ipd-1" target="6t5HLcIPYTIlGH2F0Ipd-8">
          <mxGeometry relative="1" as="geometry" />
        </mxCell>
        <mxCell id="6t5HLcIPYTIlGH2F0Ipd-1" value="customer (sender)" style="rounded=0;whiteSpace=wrap;html=1;" vertex="1" parent="1">
          <mxGeometry x="350" y="350" width="120" height="60" as="geometry" />
        </mxCell>
        <mxCell id="6t5HLcIPYTIlGH2F0Ipd-7" style="edgeStyle=orthogonalEdgeStyle;rounded=0;orthogonalLoop=1;jettySize=auto;html=1;entryX=0.25;entryY=0;entryDx=0;entryDy=0;" edge="1" parent="1" source="6t5HLcIPYTIlGH2F0Ipd-2" target="6t5HLcIPYTIlGH2F0Ipd-1">
          <mxGeometry relative="1" as="geometry" />
        </mxCell>
        <mxCell id="6t5HLcIPYTIlGH2F0Ipd-2" value="Name" style="ellipse;whiteSpace=wrap;html=1;aspect=fixed;" vertex="1" parent="1">
          <mxGeometry x="300" y="240" width="80" height="80" as="geometry" />
        </mxCell>
        <mxCell id="6t5HLcIPYTIlGH2F0Ipd-5" value="" style="edgeStyle=orthogonalEdgeStyle;rounded=0;orthogonalLoop=1;jettySize=auto;html=1;" edge="1" parent="1" source="6t5HLcIPYTIlGH2F0Ipd-3" target="6t5HLcIPYTIlGH2F0Ipd-1">
          <mxGeometry relative="1" as="geometry" />
        </mxCell>
        <mxCell id="6t5HLcIPYTIlGH2F0Ipd-3" value="Address" style="ellipse;whiteSpace=wrap;html=1;aspect=fixed;" vertex="1" parent="1">
          <mxGeometry x="390" y="200" width="80" height="80" as="geometry" />
        </mxCell>
        <mxCell id="6t5HLcIPYTIlGH2F0Ipd-6" style="edgeStyle=orthogonalEdgeStyle;rounded=0;orthogonalLoop=1;jettySize=auto;html=1;entryX=0.867;entryY=-0.05;entryDx=0;entryDy=0;entryPerimeter=0;" edge="1" parent="1" source="6t5HLcIPYTIlGH2F0Ipd-4" target="6t5HLcIPYTIlGH2F0Ipd-1">
          <mxGeometry relative="1" as="geometry">
            <mxPoint x="470" y="360" as="targetPoint" />
          </mxGeometry>
        </mxCell>
        <mxCell id="6t5HLcIPYTIlGH2F0Ipd-4" value="ID" style="ellipse;whiteSpace=wrap;html=1;aspect=fixed;" vertex="1" parent="1">
          <mxGeometry x="500" y="230" width="80" height="80" as="geometry" />
        </mxCell>
        <mxCell id="6t5HLcIPYTIlGH2F0Ipd-11" value="" style="edgeStyle=orthogonalEdgeStyle;rounded=0;orthogonalLoop=1;jettySize=auto;html=1;endArrow=ERone;endFill=0;startArrow=ERmany;startFill=0;" edge="1" parent="1" source="6t5HLcIPYTIlGH2F0Ipd-8" target="6t5HLcIPYTIlGH2F0Ipd-10">
          <mxGeometry relative="1" as="geometry" />
        </mxCell>
        <mxCell id="6t5HLcIPYTIlGH2F0Ipd-8" value="Sent/pickup" style="rhombus;whiteSpace=wrap;html=1;" vertex="1" parent="1">
          <mxGeometry x="350" y="460" width="110" height="100" as="geometry" />
        </mxCell>
        <mxCell id="6t5HLcIPYTIlGH2F0Ipd-21" style="edgeStyle=orthogonalEdgeStyle;rounded=0;orthogonalLoop=1;jettySize=auto;html=1;entryX=1;entryY=0.5;entryDx=0;entryDy=0;startArrow=ERone;startFill=0;endArrow=ERoneToMany;endFill=0;" edge="1" parent="1" source="6t5HLcIPYTIlGH2F0Ipd-10" target="6t5HLcIPYTIlGH2F0Ipd-20">
          <mxGeometry relative="1" as="geometry" />
        </mxCell>
        <mxCell id="6t5HLcIPYTIlGH2F0Ipd-10" value="Package" style="rounded=0;whiteSpace=wrap;html=1;" vertex="1" parent="1">
          <mxGeometry x="345" y="620" width="120" height="60" as="geometry" />
        </mxCell>
        <mxCell id="6t5HLcIPYTIlGH2F0Ipd-19" value="" style="edgeStyle=orthogonalEdgeStyle;rounded=0;orthogonalLoop=1;jettySize=auto;html=1;startArrow=none;startFill=0;endArrow=classicThin;endFill=1;" edge="1" parent="1" source="6t5HLcIPYTIlGH2F0Ipd-14" target="6t5HLcIPYTIlGH2F0Ipd-10">
          <mxGeometry relative="1" as="geometry" />
        </mxCell>
        <mxCell id="6t5HLcIPYTIlGH2F0Ipd-14" value="POO" style="ellipse;whiteSpace=wrap;html=1;aspect=fixed;" vertex="1" parent="1">
          <mxGeometry x="310" y="710" width="80" height="80" as="geometry" />
        </mxCell>
        <mxCell id="6t5HLcIPYTIlGH2F0Ipd-18" value="" style="edgeStyle=orthogonalEdgeStyle;rounded=0;orthogonalLoop=1;jettySize=auto;html=1;startArrow=none;startFill=0;endArrow=classic;endFill=1;" edge="1" parent="1" source="6t5HLcIPYTIlGH2F0Ipd-15" target="6t5HLcIPYTIlGH2F0Ipd-10">
          <mxGeometry relative="1" as="geometry" />
        </mxCell>
        <mxCell id="6t5HLcIPYTIlGH2F0Ipd-15" value="POD" style="ellipse;whiteSpace=wrap;html=1;aspect=fixed;" vertex="1" parent="1">
          <mxGeometry x="410" y="710" width="80" height="80" as="geometry" />
        </mxCell>
        <mxCell id="6t5HLcIPYTIlGH2F0Ipd-17" style="edgeStyle=orthogonalEdgeStyle;rounded=0;orthogonalLoop=1;jettySize=auto;html=1;entryX=1;entryY=0.75;entryDx=0;entryDy=0;startArrow=none;startFill=0;endArrow=classic;endFill=1;" edge="1" parent="1" source="6t5HLcIPYTIlGH2F0Ipd-16" target="6t5HLcIPYTIlGH2F0Ipd-10">
          <mxGeometry relative="1" as="geometry" />
        </mxCell>
        <mxCell id="6t5HLcIPYTIlGH2F0Ipd-16" value="ID" style="ellipse;whiteSpace=wrap;html=1;aspect=fixed;" vertex="1" parent="1">
          <mxGeometry x="530" y="680" width="80" height="80" as="geometry" />
        </mxCell>
        <mxCell id="6t5HLcIPYTIlGH2F0Ipd-20" value="recipient" style="rhombus;whiteSpace=wrap;html=1;" vertex="1" parent="1">
          <mxGeometry x="110" y="620" width="80" height="80" as="geometry" />
        </mxCell>
        <mxCell id="6t5HLcIPYTIlGH2F0Ipd-25" style="edgeStyle=orthogonalEdgeStyle;rounded=0;orthogonalLoop=1;jettySize=auto;html=1;startArrow=ERone;startFill=0;endArrow=ERoneToMany;endFill=0;" edge="1" parent="1" source="6t5HLcIPYTIlGH2F0Ipd-22" target="6t5HLcIPYTIlGH2F0Ipd-20">
          <mxGeometry relative="1" as="geometry" />
        </mxCell>
        <mxCell id="6t5HLcIPYTIlGH2F0Ipd-40" style="edgeStyle=orthogonalEdgeStyle;rounded=0;orthogonalLoop=1;jettySize=auto;html=1;entryX=1;entryY=0.5;entryDx=0;entryDy=0;startArrow=ERoneToMany;startFill=0;endArrow=ERoneToMany;endFill=0;" edge="1" parent="1" source="6t5HLcIPYTIlGH2F0Ipd-22" target="6t5HLcIPYTIlGH2F0Ipd-32">
          <mxGeometry relative="1" as="geometry" />
        </mxCell>
        <mxCell id="6t5HLcIPYTIlGH2F0Ipd-22" value="Mail" style="rounded=0;whiteSpace=wrap;html=1;" vertex="1" parent="1">
          <mxGeometry x="-100" y="630" width="120" height="60" as="geometry" />
        </mxCell>
        <mxCell id="6t5HLcIPYTIlGH2F0Ipd-31" value="" style="edgeStyle=orthogonalEdgeStyle;rounded=0;orthogonalLoop=1;jettySize=auto;html=1;startArrow=none;startFill=0;endArrow=classic;endFill=1;" edge="1" parent="1" source="6t5HLcIPYTIlGH2F0Ipd-26" target="6t5HLcIPYTIlGH2F0Ipd-22">
          <mxGeometry relative="1" as="geometry" />
        </mxCell>
        <mxCell id="6t5HLcIPYTIlGH2F0Ipd-26" value="Address" style="ellipse;whiteSpace=wrap;html=1;aspect=fixed;" vertex="1" parent="1">
          <mxGeometry x="-170" y="730" width="80" height="80" as="geometry" />
        </mxCell>
        <mxCell id="6t5HLcIPYTIlGH2F0Ipd-29" style="edgeStyle=orthogonalEdgeStyle;rounded=0;orthogonalLoop=1;jettySize=auto;html=1;startArrow=none;startFill=0;endArrow=classic;endFill=1;" edge="1" parent="1" source="6t5HLcIPYTIlGH2F0Ipd-27" target="6t5HLcIPYTIlGH2F0Ipd-22">
          <mxGeometry relative="1" as="geometry" />
        </mxCell>
        <mxCell id="6t5HLcIPYTIlGH2F0Ipd-27" value="Status" style="ellipse;whiteSpace=wrap;html=1;aspect=fixed;" vertex="1" parent="1">
          <mxGeometry x="-70" y="730" width="80" height="80" as="geometry" />
        </mxCell>
        <mxCell id="6t5HLcIPYTIlGH2F0Ipd-30" value="" style="edgeStyle=orthogonalEdgeStyle;rounded=0;orthogonalLoop=1;jettySize=auto;html=1;startArrow=none;startFill=0;endArrow=classic;endFill=1;" edge="1" parent="1" source="6t5HLcIPYTIlGH2F0Ipd-28" target="6t5HLcIPYTIlGH2F0Ipd-1">
          <mxGeometry relative="1" as="geometry" />
        </mxCell>
        <mxCell id="6t5HLcIPYTIlGH2F0Ipd-28" value="Status" style="ellipse;whiteSpace=wrap;html=1;aspect=fixed;" vertex="1" parent="1">
          <mxGeometry x="520" y="330" width="80" height="80" as="geometry" />
        </mxCell>
        <mxCell id="6t5HLcIPYTIlGH2F0Ipd-41" style="edgeStyle=orthogonalEdgeStyle;rounded=0;orthogonalLoop=1;jettySize=auto;html=1;entryX=1.025;entryY=0.617;entryDx=0;entryDy=0;entryPerimeter=0;startArrow=ERoneToMany;startFill=0;endArrow=ERoneToMany;endFill=0;" edge="1" parent="1" source="6t5HLcIPYTIlGH2F0Ipd-32" target="6t5HLcIPYTIlGH2F0Ipd-33">
          <mxGeometry relative="1" as="geometry" />
        </mxCell>
        <mxCell id="6t5HLcIPYTIlGH2F0Ipd-32" value="Sorting/Work" style="rhombus;whiteSpace=wrap;html=1;" vertex="1" parent="1">
          <mxGeometry x="-340" y="620" width="100" height="90" as="geometry" />
        </mxCell>
        <mxCell id="6t5HLcIPYTIlGH2F0Ipd-33" value="Employer" style="rounded=0;whiteSpace=wrap;html=1;" vertex="1" parent="1">
          <mxGeometry x="-580" y="630" width="120" height="60" as="geometry" />
        </mxCell>
        <mxCell id="6t5HLcIPYTIlGH2F0Ipd-37" style="edgeStyle=orthogonalEdgeStyle;rounded=0;orthogonalLoop=1;jettySize=auto;html=1;entryX=0.167;entryY=1;entryDx=0;entryDy=0;entryPerimeter=0;startArrow=none;startFill=0;endArrow=classic;endFill=1;" edge="1" parent="1" source="6t5HLcIPYTIlGH2F0Ipd-34" target="6t5HLcIPYTIlGH2F0Ipd-33">
          <mxGeometry relative="1" as="geometry" />
        </mxCell>
        <mxCell id="6t5HLcIPYTIlGH2F0Ipd-34" value="ID" style="ellipse;whiteSpace=wrap;html=1;aspect=fixed;" vertex="1" parent="1">
          <mxGeometry x="-650" y="730" width="80" height="80" as="geometry" />
        </mxCell>
        <mxCell id="6t5HLcIPYTIlGH2F0Ipd-36" value="" style="edgeStyle=orthogonalEdgeStyle;rounded=0;orthogonalLoop=1;jettySize=auto;html=1;startArrow=none;startFill=0;endArrow=classic;endFill=1;" edge="1" parent="1" source="6t5HLcIPYTIlGH2F0Ipd-35" target="6t5HLcIPYTIlGH2F0Ipd-33">
          <mxGeometry relative="1" as="geometry" />
        </mxCell>
        <mxCell id="6t5HLcIPYTIlGH2F0Ipd-35" value="&lt;div&gt;Jobtitle&lt;/div&gt;" style="ellipse;whiteSpace=wrap;html=1;aspect=fixed;" vertex="1" parent="1">
          <mxGeometry x="-560" y="750" width="80" height="80" as="geometry" />
        </mxCell>
        <mxCell id="6t5HLcIPYTIlGH2F0Ipd-39" style="edgeStyle=orthogonalEdgeStyle;rounded=0;orthogonalLoop=1;jettySize=auto;html=1;entryX=0.75;entryY=1;entryDx=0;entryDy=0;startArrow=none;startFill=0;endArrow=classic;endFill=1;" edge="1" parent="1" source="6t5HLcIPYTIlGH2F0Ipd-38" target="6t5HLcIPYTIlGH2F0Ipd-33">
          <mxGeometry relative="1" as="geometry" />
        </mxCell>
        <mxCell id="6t5HLcIPYTIlGH2F0Ipd-38" value="Salary" style="ellipse;whiteSpace=wrap;html=1;aspect=fixed;" vertex="1" parent="1">
          <mxGeometry x="-460" y="740" width="80" height="80" as="geometry" />
        </mxCell>
        <mxCell id="6t5HLcIPYTIlGH2F0Ipd-42" value="Customer (recipient)" style="rounded=0;whiteSpace=wrap;html=1;" vertex="1" parent="1">
          <mxGeometry x="-120" y="340" width="120" height="60" as="geometry" />
        </mxCell>
        <mxCell id="6t5HLcIPYTIlGH2F0Ipd-44" value="" style="edgeStyle=orthogonalEdgeStyle;rounded=0;orthogonalLoop=1;jettySize=auto;html=1;startArrow=ERoneToMany;startFill=0;endArrow=ERone;endFill=0;" edge="1" parent="1" source="6t5HLcIPYTIlGH2F0Ipd-43" target="6t5HLcIPYTIlGH2F0Ipd-22">
          <mxGeometry relative="1" as="geometry" />
        </mxCell>
        <mxCell id="6t5HLcIPYTIlGH2F0Ipd-45" value="" style="edgeStyle=orthogonalEdgeStyle;rounded=0;orthogonalLoop=1;jettySize=auto;html=1;startArrow=ERoneToMany;startFill=0;endArrow=ERone;endFill=0;" edge="1" parent="1" source="6t5HLcIPYTIlGH2F0Ipd-43" target="6t5HLcIPYTIlGH2F0Ipd-42">
          <mxGeometry relative="1" as="geometry" />
        </mxCell>
        <mxCell id="6t5HLcIPYTIlGH2F0Ipd-43" value="delivery/pickup" style="rhombus;whiteSpace=wrap;html=1;" vertex="1" parent="1">
          <mxGeometry x="-90" y="470" width="80" height="80" as="geometry" />
        </mxCell>
      </root>
    </mxGraphModel>
  </diagram>
</mxfile>
